<?xml version="1.0" encoding="UTF-8" standalone="no"?>
<!-- Uploaded to: SVG Repo, www.svgrepo.com, Generator: SVG Repo Mixer Tools -->

<svg
   fill="#000000"
   height="800px"
   width="800px"
   version="1.1"
   id="Layer_1"
   viewBox="0 0 512 512"
   xml:space="preserve"
   sodipodi:docname="tetrahedron-svgrepo-com.svg"
   inkscape:version="1.3.2 (091e20e, 2023-11-25, custom)"
   xmlns:inkscape="http://www.inkscape.org/namespaces/inkscape"
   xmlns:sodipodi="http://sodipodi.sourceforge.net/DTD/sodipodi-0.dtd"
   xmlns="http://www.w3.org/2000/svg"
   xmlns:svg="http://www.w3.org/2000/svg"><defs
   id="defs2" /><sodipodi:namedview
   id="namedview2"
   pagecolor="#ffffff"
   bordercolor="#666666"
   borderopacity="1.0"
   inkscape:showpageshadow="2"
   inkscape:pageopacity="0.0"
   inkscape:pagecheckerboard="0"
   inkscape:deskcolor="#d1d1d1"
   inkscape:zoom="1.04625"
   inkscape:cx="400.4779"
   inkscape:cy="400"
   inkscape:window-width="944"
   inkscape:window-height="1041"
   inkscape:window-x="960"
   inkscape:window-y="0"
   inkscape:window-maximized="0"
   inkscape:current-layer="g2" />
<g
   id="g2">
	<g
   id="g1"
   style="stroke:none;stroke-opacity:1;fill:#412927;fill-opacity:1">
		<path
   d="M500.248,496.747L265.581,6.08c-0.064-0.128-0.213-0.171-0.299-0.299C263.512,2.389,260.056,0,255.96,0    c-4.096,0-7.531,2.389-9.323,5.781c-0.064,0.128-0.235,0.171-0.299,0.299L11.672,496.747c-0.107,0.213-0.043,0.448-0.128,0.64    c-0.491,1.195-0.725,2.453-0.747,3.755c0,0.341-0.128,0.661-0.085,1.024c0.107,1.451,0.491,2.901,1.237,4.267    c0.064,0.107,0.171,0.128,0.213,0.235c0.064,0.107,0.043,0.256,0.107,0.363c0.683,1.088,1.728,1.792,2.709,2.56    c0.384,0.299,0.64,0.768,1.067,1.003c1.579,0.896,3.371,1.408,5.248,1.408h469.333c3.669,0,7.083-1.877,9.024-4.971    S501.848,500.053,500.248,496.747z M245.293,57.664v309.333L45.144,476.181L245.293,57.664z M63.128,490.667l192.725-105.109    l183.957,105.109H63.128z M266.627,367.147V57.728l203.648,425.771L266.627,367.147z"
   id="path1"
   style="stroke:none;stroke-opacity:1;fill:#412927;fill-opacity:1" />
	</g>
</g>
</svg>
